<?xml version="1.0" encoding="UTF-8" standalone="no"?>
<!-- Generator: Adobe Illustrator 24.0.1, SVG Export Plug-In . SVG Version: 6.00 Build 0)  -->

<svg
   xmlns:dc="http://purl.org/dc/elements/1.1/"
   xmlns:cc="http://creativecommons.org/ns#"
   xmlns:rdf="http://www.w3.org/1999/02/22-rdf-syntax-ns#"
   xmlns:svg="http://www.w3.org/2000/svg"
   xmlns="http://www.w3.org/2000/svg"
   xmlns:sodipodi="http://sodipodi.sourceforge.net/DTD/sodipodi-0.dtd"
   xmlns:inkscape="http://www.inkscape.org/namespaces/inkscape"
   version="1.1"
   id="svg5"
   x="0px"
   y="0px"
   viewBox="0 0 595.3 841.9"
   style="enable-background:new 0 0 595.3 841.9;"
   xml:space="preserve"
   sodipodi:docname="chagh2Creature_frown.svg"
   inkscape:version="0.92.5 (2060ec1f9f, 2020-04-08)"><metadata
   id="metadata31"><rdf:RDF><cc:Work
       rdf:about=""><dc:format>image/svg+xml</dc:format><dc:type
         rdf:resource="http://purl.org/dc/dcmitype/StillImage" /><dc:title></dc:title></cc:Work></rdf:RDF></metadata><defs
   id="defs29" /><sodipodi:namedview
   pagecolor="#ffffff"
   bordercolor="#666666"
   borderopacity="1"
   objecttolerance="10"
   gridtolerance="10"
   guidetolerance="10"
   inkscape:pageopacity="0"
   inkscape:pageshadow="2"
   inkscape:window-width="1920"
   inkscape:window-height="1015"
   id="namedview27"
   showgrid="false"
   inkscape:zoom="1.5857199"
   inkscape:cx="273.60534"
   inkscape:cy="519.29883"
   inkscape:window-x="0"
   inkscape:window-y="0"
   inkscape:window-maximized="1"
   inkscape:current-layer="svg5" />
<style
   type="text/css"
   id="style2">
	.st0{fill:#0000FF;stroke:#0000FF;stroke-width:7;stroke-miterlimit:11.3386;}
	.st1{fill:#0000FF;}
	.st2{fill:none;stroke:#000000;stroke-width:7;stroke-miterlimit:11.3386;}
	.st3{fill:#FFFFFF;stroke:#FFFFFF;stroke-width:3;stroke-miterlimit:11.3386;}
	.st4{fill:none;stroke:#000000;stroke-width:6.4205;stroke-miterlimit:11.3386;}
	.st5{stroke:#000000;stroke-width:2.8346;stroke-miterlimit:11.3386;}
	.st6{fill:#FFFFFF;stroke:#FFFFFF;stroke-width:2.8346;stroke-miterlimit:11.3386;}
</style>
<circle
   class="st0"
   cx="281.9"
   cy="250.3"
   r="148.4"
   id="circle4" />
<polygon
   class="st0"
   points="327.2,392.7 325,473.8 391.1,467.3 363.4,457.1 368.9,368.1 "
   id="polygon6" />
<polygon
   class="st1"
   points="250.9,395.6 269.1,474.6 203.1,481.4 228.2,465.8 205.1,379.7 "
   id="polygon8" />
<polyline
   class="st2"
   points="287,214.2 271.3,240.1 292.5,237 "
   id="polyline10" />

<path
   id="دست_چپ_عادی"
   d="m 167.57153,246.18576 c -16.1682,6.18622 -31.4712,14.32984 -45.46209,24.44789 -12.33609,8.97278 -28.476761,20.30674 -29.913216,36.85565 -0.705448,7.93929 1.949285,15.78291 4.756835,23.14007 2.9348,7.54102 6.141131,15.00288 9.802881,22.25833 7.80694,15.91671 17.34784,30.95969 28.27199,44.93656 3.8827,4.98144 12.49035,-0.10564 8.51998,-5.13517 -9.42819,-12.12968 -17.88895,-24.9833 -25.02307,-38.59191 -3.63068,-6.89624 -7.0294,-14.00741 -9.97272,-21.32499 -2.65775,-6.59062 -5.88112,-13.6056 -6.36655,-20.82947 -1.06403,-15.52539 16.77653,-26.8393 27.95281,-34.73745 12.46334,-8.78892 25.98428,-15.97113 40.24318,-21.37981 5.95136,-2.32409 3.22899,-11.91569 -2.81003,-9.6397 z"
   inkscape:connector-curvature="0"
   inkscape:transform-center-x="34.678127"
   inkscape:transform-center-y="71.007538" />
<path
   id="دست_چپ_عادی_1_"
   d="m 440.66398,404.80311 c 3.12274,-14.88931 14.44214,-25.7458 23.7254,-36.24919 10.48162,-11.89342 19.37761,-25.07022 26.34737,-39.8475 3.20777,-6.84352 7.37698,-14.8479 8.21009,-22.48868 1.01922,-8.55971 -5.44069,-13.99531 -10.81216,-18.86735 -11.0444,-9.96051 -23.39291,-18.24394 -36.46799,-24.7624 -14.78021,-7.27062 -30.49851,-12.20221 -46.59112,-14.46265 -6.35285,-0.96714 -7.64061,9.97669 -1.23488,10.80033 26.35701,3.78516 51.44829,14.93685 72.78173,32.35573 2.52917,2.03328 5.00545,4.21007 7.38972,6.4297 1.23127,1.2105 2.86977,2.35037 3.86413,3.79003 1.66183,2.31804 1.05268,4.38507 0.13998,7.06899 -2.57944,7.62121 -5.81469,14.95312 -9.61374,21.95291 -6.96562,13.11072 -15.84372,24.37676 -25.45593,35.15215 -9.84913,11.00454 -19.08158,22.1977 -22.2318,37.5754 -1.38317,7.06445 8.57977,8.37278 9.9492,1.55253 z"
   inkscape:connector-curvature="0"
   inkscape:transform-center-x="-43.93535"
   inkscape:transform-center-y="74.950517"
   style="stroke-width:1.04601896" />
<g
   id="layer1"
   inkscape:groupmode="layer"
   inkscape:label="Layer 1">
	<ellipse
   class="st3"
   cx="334.1"
   cy="181.5"
   rx="33.9"
   ry="30.3"
   id="ellipse14" />
	<ellipse
   class="st3"
   cx="229.7"
   cy="181.5"
   rx="33.9"
   ry="30.3"
   id="ellipse16" />
	<path
   id="لب_گریان"
   class="st4"
   d="M251.9,264.6c9.5,0,18.4-8.4,27.9-8.4c8.8,0,18.1,8.4,26.9,8.4" />
	<g
   id="g27483">
		<ellipse
   id="path26967"
   class="st5"
   cx="240.5"
   cy="187.1"
   rx="14.8"
   ry="14.1" />
		<ellipse
   id="path27237"
   class="st6"
   cx="247.4"
   cy="178.6"
   rx="1.4"
   ry="1.4" />
	</g>
	<g
   id="g27489"
   transform="translate(28.575012)">
		<ellipse
   id="ellipse27485"
   class="st5"
   cx="292.9"
   cy="187.1"
   rx="14.8"
   ry="14.1" />
		<ellipse
   id="ellipse27487"
   class="st6"
   cx="299.8"
   cy="178.6"
   rx="1.4"
   ry="1.4" />
	</g>
</g>
</svg>