<?xml version="1.0" encoding="utf-8"?>
<!-- Generator: Adobe Illustrator 24.0.1, SVG Export Plug-In . SVG Version: 6.00 Build 0)  -->
<svg version="1.1"
	 id="svg5" xmlns:inkscape="http://www.inkscape.org/namespaces/inkscape" xmlns:sodipodi="http://sodipodi.sourceforge.net/DTD/sodipodi-0.dtd" xmlns:svg="http://www.w3.org/2000/svg"
	 xmlns="http://www.w3.org/2000/svg" xmlns:xlink="http://www.w3.org/1999/xlink" x="0px" y="0px" viewBox="0 0 595.3 841.9"
	 style="enable-background:new 0 0 595.3 841.9;" xml:space="preserve">
<style type="text/css">
	.st0{fill:#0000FF;stroke:#0000FF;stroke-width:7;stroke-miterlimit:11.3386;}
	.st1{fill:#0000FF;}
	.st2{fill:none;stroke:#000000;stroke-width:7;stroke-miterlimit:11.3386;}
	.st3{fill:none;stroke:#000000;stroke-width:6.4205;stroke-miterlimit:11.3386;}
</style>
<circle class="st0" cx="281.9" cy="250.3" r="148.4"/>
<polygon class="st0" points="325.9,393.1 315.9,473.6 382.3,473.6 355.7,460.7 369.8,372.7 "/>
<polygon class="st1" points="254.5,397.5 264.5,478 198.1,478 224.7,465 210.6,377 "/>
<polyline class="st2" points="287,214.2 271.3,240.1 292.5,237 "/>
<path id="دست_چپ_عادی" d="M180.1,211.7c-13.2-11.2-27.7-20.7-43.3-28.1c-13.8-6.5-31.5-15.2-46.7-8.5
	c-7.3,3.2-12.9,9.3-18,15.3c-5.2,6.2-10.2,12.6-14.8,19.3c-10.2,14.5-18.8,30.1-25.8,46.4c-2.5,5.8,6.1,10.9,8.6,5
	c6.1-14.1,13.3-27.7,21.8-40.5c4.3-6.5,8.9-12.9,13.9-19c4.5-5.5,9.1-11.7,15.2-15.6c13.1-8.4,31.6,1.8,43.9,7.8
	c13.7,6.7,26.5,15.1,38.1,25C177.9,222.9,185,215.9,180.1,211.7z"/>
<path id="دست_چپ_عادی_1_" d="M545.8,277.7c-11.3-8.2-16-22.5-21.2-34.8c-5.9-13.9-13.5-26.8-23.2-38.5
	c-4.5-5.4-9.6-12.1-15.7-15.6c-6.8-4-13.9,0-20.1,3.2c-12.7,6.6-24.5,15-35.1,24.7c-11.9,11-22.2,23.7-30.4,37.7
	c-3.3,5.5,5.4,10.6,8.6,5c13.5-22.9,32.7-42,55.7-55.4c2.7-1.6,5.5-3.1,8.3-4.5c1.5-0.7,3.1-1.8,4.7-2.2c2.6-0.7,4.1,0.6,6,2.4
	c5.4,5.1,10.3,10.7,14.7,16.7c8.3,11.1,14.3,23.3,19.6,36c5.4,13,11.2,25.5,22.9,33.9C546,290.1,551,281.4,545.8,277.7z"/>
<g id="layer1" inkscape:groupmode="layer" inkscape:label="Layer 1">
	<path id="path26819" class="st3" d="M251.9,264.6h54.8"/>
</g>
</svg>
