<?xml version="1.0" encoding="UTF-8" standalone="no"?>
<!-- Generator: Adobe Illustrator 24.0.1, SVG Export Plug-In . SVG Version: 6.00 Build 0)  -->

<svg
   xmlns:dc="http://purl.org/dc/elements/1.1/"
   xmlns:cc="http://creativecommons.org/ns#"
   xmlns:rdf="http://www.w3.org/1999/02/22-rdf-syntax-ns#"
   xmlns:svg="http://www.w3.org/2000/svg"
   xmlns="http://www.w3.org/2000/svg"
   xmlns:sodipodi="http://sodipodi.sourceforge.net/DTD/sodipodi-0.dtd"
   xmlns:inkscape="http://www.inkscape.org/namespaces/inkscape"
   version="1.1"
   id="svg5"
   x="0px"
   y="0px"
   viewBox="0 0 595.3 841.9"
   style="enable-background:new 0 0 595.3 841.9;"
   xml:space="preserve"
   sodipodi:docname="chagh2Creature_think.svg"
   inkscape:version="0.92.5 (2060ec1f9f, 2020-04-08)"><metadata
   id="metadata31"><rdf:RDF><cc:Work
       rdf:about=""><dc:format>image/svg+xml</dc:format><dc:type
         rdf:resource="http://purl.org/dc/dcmitype/StillImage" /><dc:title></dc:title></cc:Work></rdf:RDF></metadata><defs
   id="defs29" /><sodipodi:namedview
   pagecolor="#ffffff"
   bordercolor="#666666"
   borderopacity="1"
   objecttolerance="10"
   gridtolerance="10"
   guidetolerance="10"
   inkscape:pageopacity="0"
   inkscape:pageshadow="2"
   inkscape:window-width="1920"
   inkscape:window-height="1015"
   id="namedview27"
   showgrid="false"
   inkscape:zoom="1.5857199"
   inkscape:cx="170.4976"
   inkscape:cy="519.29883"
   inkscape:window-x="0"
   inkscape:window-y="0"
   inkscape:window-maximized="1"
   inkscape:current-layer="svg5" />
<style
   type="text/css"
   id="style2">
	.st0{fill:#0000FF;stroke:#0000FF;stroke-width:7;stroke-miterlimit:11.3386;}
	.st1{fill:#0000FF;}
	.st2{fill:none;stroke:#000000;stroke-width:7;stroke-miterlimit:11.3386;}
	.st3{fill:#FFFFFF;stroke:#FFFFFF;stroke-width:3;stroke-miterlimit:11.3386;}
	.st4{fill:none;stroke:#000000;stroke-width:6.4205;stroke-miterlimit:11.3386;}
	.st5{stroke:#000000;stroke-width:2.8346;stroke-miterlimit:11.3386;}
	.st6{fill:#FFFFFF;stroke:#FFFFFF;stroke-width:2.8346;stroke-miterlimit:11.3386;}
</style>
<circle
   class="st0"
   cx="281.9"
   cy="250.3"
   r="148.4"
   id="circle4" />
<polygon
   class="st0"
   points="327.2,392.7 325,473.8 391.1,467.3 363.4,457.1 368.9,368.1 "
   id="polygon6" />
<polygon
   class="st1"
   points="250.9,395.6 269.1,474.6 203.1,481.4 228.2,465.8 205.1,379.7 "
   id="polygon8" />
<polyline
   class="st2"
   points="287,214.2 271.3,240.1 292.5,237 "
   id="polyline10" />

<path
   id="دست_چپ_عادی"
   d="m 161.89106,251.80589 c 5.79377,16.19445 13.34738,31.53767 22.67076,45.58328 8.2672,12.38469 18.71674,28.58621 33.70284,30.1325 7.18974,0.75813 14.25172,-1.84139 20.87182,-4.59685 6.78485,-2.88135 13.49477,-6.03451 20.01239,-9.64403 14.30089,-7.6926 27.79023,-17.12339 40.29828,-27.94327 4.45808,-3.84555 -0.24876,-12.47922 -4.74926,-8.54641 -10.85563,9.33776 -22.37794,17.70413 -34.59941,24.74005 -6.19309,3.58091 -12.58346,6.92863 -19.16609,9.81999 -5.92862,2.61096 -12.23411,5.78413 -18.76214,6.22057 -14.02966,0.9587 -24.48192,-16.94097 -31.76289,-28.15973 -8.10245,-12.51057 -14.76462,-26.06697 -19.83166,-40.34869 -2.17514,-5.96134 -10.81734,-3.306 -8.68464,2.74259 z"
   inkscape:connector-curvature="0"
   inkscape:transform-center-x="-64.389575"
   inkscape:transform-center-y="34.838253"
   style="stroke-width:0.95055747" />
<path
   id="دست_چپ_عادی_1_"
   d="m 354.32215,105.75884 c 10.55987,10.95135 25.91859,14.12968 39.365,18.0913 15.20032,4.50197 29.73985,10.93386 43.49861,19.74532 6.3549,4.09132 14.14123,8.6548 18.90858,14.68373 5.41348,6.70834 2.83135,14.7463 0.87158,21.72832 -4.05986,14.30762 -10.1158,27.888 -17.72538,40.35966 -8.65402,14.01515 -19.34598,26.54781 -31.77492,37.01696 -4.8668,4.19623 -11.77508,-4.38871 -6.78722,-8.49152 20.31245,-17.21696 35.63689,-40.0006 44.44689,-66.09498 1.06138,-3.06666 2.00165,-6.22677 2.84124,-9.37425 0.39941,-1.67982 1.1813,-3.51629 1.25823,-5.26428 0.17535,-2.84679 -1.43939,-4.27376 -3.63919,-6.06189 -6.23609,-5.08404 -12.87389,-9.5744 -19.81267,-13.48377 -12.86935,-7.40207 -26.37798,-12.22505 -40.2476,-16.24219 -14.1921,-4.08531 -27.96212,-8.65818 -38.8049,-20.00859 -4.92688,-5.24838 2.8163,-11.65266 7.60175,-6.60382 z"
   inkscape:connector-curvature="0"
   inkscape:transform-center-x="2.5316211"
   inkscape:transform-center-y="-71.249016"
   style="stroke-width:1.04601896" />
<g
   id="layer1"
   inkscape:groupmode="layer"
   inkscape:label="Layer 1">
	<ellipse
   class="st3"
   cx="334.1"
   cy="181.5"
   rx="33.9"
   ry="30.3"
   id="ellipse14" />
	<ellipse
   class="st3"
   cx="229.7"
   cy="181.5"
   rx="33.9"
   ry="30.3"
   id="ellipse16" />
	<path
   id="لب_گریان"
   class="st4"
   d="M251.9,264.6c9.5,0,18.4-8.4,27.9-8.4c8.8,0,18.1,8.4,26.9,8.4" />
	<g
   id="g27483">
		<ellipse
   id="path26967"
   class="st5"
   cx="240.5"
   cy="187.1"
   rx="14.8"
   ry="14.1" />
		<ellipse
   id="path27237"
   class="st6"
   cx="247.4"
   cy="178.6"
   rx="1.4"
   ry="1.4" />
	</g>
	<g
   id="g27489"
   transform="translate(28.575012)">
		<ellipse
   id="ellipse27485"
   class="st5"
   cx="292.9"
   cy="187.1"
   rx="14.8"
   ry="14.1" />
		<ellipse
   id="ellipse27487"
   class="st6"
   cx="299.8"
   cy="178.6"
   rx="1.4"
   ry="1.4" />
	</g>
</g>
</svg>