<?xml version="1.0" encoding="UTF-8" standalone="no"?>
<!-- Generator: Adobe Illustrator 24.0.1, SVG Export Plug-In . SVG Version: 6.00 Build 0)  -->

<svg
   xmlns:dc="http://purl.org/dc/elements/1.1/"
   xmlns:cc="http://creativecommons.org/ns#"
   xmlns:rdf="http://www.w3.org/1999/02/22-rdf-syntax-ns#"
   xmlns:svg="http://www.w3.org/2000/svg"
   xmlns="http://www.w3.org/2000/svg"
   xmlns:sodipodi="http://sodipodi.sourceforge.net/DTD/sodipodi-0.dtd"
   xmlns:inkscape="http://www.inkscape.org/namespaces/inkscape"
   version="1.1"
   id="svg5"
   x="0px"
   y="0px"
   viewBox="0 0 595.3 841.9"
   style="enable-background:new 0 0 595.3 841.9;"
   xml:space="preserve"
   sodipodi:docname="chaghCreature_think.svg"
   inkscape:version="0.92.5 (2060ec1f9f, 2020-04-08)"><metadata
   id="metadata31"><rdf:RDF><cc:Work
       rdf:about=""><dc:format>image/svg+xml</dc:format><dc:type
         rdf:resource="http://purl.org/dc/dcmitype/StillImage" /></cc:Work></rdf:RDF></metadata><defs
   id="defs29" /><sodipodi:namedview
   pagecolor="#ffffff"
   bordercolor="#666666"
   borderopacity="1"
   objecttolerance="10"
   gridtolerance="10"
   guidetolerance="10"
   inkscape:pageopacity="0"
   inkscape:pageshadow="2"
   inkscape:window-width="1920"
   inkscape:window-height="1015"
   id="namedview27"
   showgrid="false"
   inkscape:zoom="2.1943491"
   inkscape:cx="296.52613"
   inkscape:cy="554.15002"
   inkscape:window-x="0"
   inkscape:window-y="0"
   inkscape:window-maximized="1"
   inkscape:current-layer="svg5" />
<style
   type="text/css"
   id="style2">
	.st0{fill:#0000FF;stroke:#0000FF;stroke-width:7;stroke-miterlimit:11.3386;}
	.st1{fill:#0000FF;}
	.st2{fill:none;stroke:#000000;stroke-width:7;stroke-miterlimit:11.3386;}
	.st3{fill:#FFFFFF;stroke:#FFFFFF;stroke-width:3;stroke-miterlimit:11.3386;}
	.st4{fill:none;stroke:#000000;stroke-width:6.4205;stroke-miterlimit:11.3386;}
	.st5{stroke:#000000;stroke-width:2.8346;stroke-miterlimit:11.3386;}
	.st6{fill:#FFFFFF;stroke:#FFFFFF;stroke-width:2.8346;stroke-miterlimit:11.3386;}
</style>
<circle
   class="st0"
   cx="281.9"
   cy="250.3"
   r="148.4"
   id="circle4" />
<polygon
   class="st0"
   points="325.9,393.1 315.9,473.6 382.3,473.6 355.7,460.7 369.8,372.7 "
   id="polygon6" />
<polygon
   class="st1"
   points="246,394.7 258.3,474.9 191.9,476.7 218.1,463.1 201.6,375.5 "
   id="polygon8" />
<polyline
   class="st2"
   points="287,214.2 271.3,240.1 292.5,237 "
   id="polyline10" />
<path
   id="دست_چپ_زیر_دهن"
   d="m 185.50176,228.54317 c -22.95699,26.32315 -12.96802,57.53558 9.9166,78.55017 5.57213,5.09732 11.92405,10.74079 19.53653,11.98154 8.05999,1.26846 16.60075,-2.41194 23.52351,-6.05674 14.21287,-7.4479 27.42988,-16.84221 36.90143,-29.03338 2.55293,-5.95207 11.91873,-2.1587 9.3658,3.79337 -5.91066,13.57419 -20.16225,19.61465 -32.10421,28.2894 -11.19558,8.13257 -26.91246,15.92396 -41.1494,12.65967 -14.15762,-3.24608 -26.61811,-16.53867 -35.20263,-27.61582 -9.34094,-12.07445 -11.06573,-20.82398 -12.02119,-36.18109 -0.91538,-15.26413 3.075,-30.76763 13.23525,-42.31356 4.16428,-4.99235 12.2945,0.98751 7.99831,5.92644 z"
   inkscape:connector-curvature="0"
   sodipodi:nodetypes="ccccccsscccc"
   style="stroke-width:1.00632632" />
<path
   id="دست_چپ_بالای_سر"
   d="M363.4,117.1c9.8,10,24.6,12.4,37.6,15.7c14.7,3.7,28.6,9.3,41.5,17.1  c6,3.6,13.4,7.7,17.8,13.2c5,6.1,2.1,13.7-0.2,20.3c-4.2,12.2-10.5,25.5-19.2,38.4c-9,13.4-20.1,25.5-32.7,35.7  c-5,4.1-11.3-3.7-6.3-7.8c20.6-16.8,36.6-38.7,46.4-63.4c1.2-2.9,2.2-5.9,3.2-8.9c0.5-1.6,1.3-3.3,1.4-5c0.3-2.7-1.2-4-3.3-5.6  c-5.9-4.5-12.1-8.6-18.7-12.1c-12.2-6.5-25.1-10.6-38.5-13.9c-13.6-3.4-26.9-7.3-37-17.5C351.1,118.8,358.9,112.5,363.4,117.1z" />
<g
   id="layer1"
   inkscape:groupmode="layer"
   inkscape:label="Layer 1">
	<ellipse
   class="st3"
   cx="334.1"
   cy="181.5"
   rx="33.9"
   ry="30.3"
   id="ellipse14" />
	<ellipse
   class="st3"
   cx="229.7"
   cy="181.5"
   rx="33.9"
   ry="30.3"
   id="ellipse16" />
	<path
   id="لب_گریان"
   class="st4"
   d="M251.9,264.6c9.5,0,18.4-8.4,27.9-8.4c8.8,0,18.1,8.4,26.9,8.4" />
	<g
   id="g27483">
		<ellipse
   id="path26967"
   class="st5"
   cx="240.5"
   cy="187.1"
   rx="14.8"
   ry="14.1" />
		<ellipse
   id="path27237"
   class="st6"
   cx="247.4"
   cy="178.6"
   rx="1.4"
   ry="1.4" />
	</g>
	<g
   id="g27489"
   transform="translate(28.575012)">
		<ellipse
   id="ellipse27485"
   class="st5"
   cx="292.9"
   cy="187.1"
   rx="14.8"
   ry="14.1" />
		<ellipse
   id="ellipse27487"
   class="st6"
   cx="299.8"
   cy="178.6"
   rx="1.4"
   ry="1.4" />
	</g>
</g>
</svg>