<?xml version="1.0" encoding="UTF-8" standalone="no"?>
<!-- Generator: Adobe Illustrator 24.0.1, SVG Export Plug-In . SVG Version: 6.00 Build 0)  -->

<svg
   xmlns:dc="http://purl.org/dc/elements/1.1/"
   xmlns:cc="http://creativecommons.org/ns#"
   xmlns:rdf="http://www.w3.org/1999/02/22-rdf-syntax-ns#"
   xmlns:svg="http://www.w3.org/2000/svg"
   xmlns="http://www.w3.org/2000/svg"
   xmlns:sodipodi="http://sodipodi.sourceforge.net/DTD/sodipodi-0.dtd"
   xmlns:inkscape="http://www.inkscape.org/namespaces/inkscape"
   version="1.1"
   id="svg5"
   x="0px"
   y="0px"
   viewBox="0 0 595.3 841.9"
   style="enable-background:new 0 0 595.3 841.9;"
   xml:space="preserve"
   sodipodi:docname="chagh_plain.svg"
   inkscape:version="0.92.5 (2060ec1f9f, 2020-04-08)"><metadata
   id="metadata31"><rdf:RDF><cc:Work
       rdf:about=""><dc:format>image/svg+xml</dc:format><dc:type
         rdf:resource="http://purl.org/dc/dcmitype/StillImage" /></cc:Work></rdf:RDF></metadata><defs
   id="defs29" /><sodipodi:namedview
   pagecolor="#ffffff"
   bordercolor="#666666"
   borderopacity="1"
   objecttolerance="10"
   gridtolerance="10"
   guidetolerance="10"
   inkscape:pageopacity="0"
   inkscape:pageshadow="2"
   inkscape:window-width="1920"
   inkscape:window-height="1015"
   id="namedview27"
   showgrid="false"
   inkscape:zoom="1.5857199"
   inkscape:cx="282.59034"
   inkscape:cy="524.82784"
   inkscape:window-x="0"
   inkscape:window-y="0"
   inkscape:window-maximized="1"
   inkscape:current-layer="svg5" />
<style
   type="text/css"
   id="style2">
	.st0{fill:#0000FF;stroke:#0000FF;stroke-width:7;stroke-miterlimit:11.3386;}
	.st1{fill:#0000FF;}
	.st2{fill:none;stroke:#000000;stroke-width:7;stroke-miterlimit:11.3386;}
	.st3{fill:#FFFFFF;stroke:#FFFFFF;stroke-width:3;stroke-miterlimit:11.3386;}
	.st4{fill:none;stroke:#000000;stroke-width:6.4205;stroke-miterlimit:11.3386;}
	.st5{stroke:#000000;stroke-width:2.8346;stroke-miterlimit:11.3386;}
	.st6{fill:#FFFFFF;stroke:#FFFFFF;stroke-width:2.8346;stroke-miterlimit:11.3386;}
</style>
<circle
   class="st0"
   cx="281.9"
   cy="250.3"
   r="148.4"
   id="circle4" />
<polygon
   class="st0"
   points="325.9,393.1 315.9,473.6 382.3,473.6 355.7,460.7 369.8,372.7 "
   id="polygon6" />
<polygon
   class="st1"
   points="254.5,397.5 264.5,478 198.1,478 224.7,465 210.6,377 "
   id="polygon8" />
<polyline
   id="polyline838"
   points="287,214.2 271.3,240.1 292.5,237 "
   class="st2"
   style="fill:none;stroke:#000000;stroke-width:7;stroke-miterlimit:11.33860016" /><polyline
   class="st2"
   points="287,214.2 271.3,240.1 292.5,237 "
   id="polyline10" />
<path
   id="دست_چپ_عادی"
   d="m 168.31096,225.26796 c -16.58247,4.97008 -32.44728,11.95634 -47.15004,21.0089 -12.96758,8.03318 -29.904379,18.13887 -32.564209,34.53567 -1.292315,7.86511 0.773396,15.88402 3.027572,23.42913 2.367441,7.7379 5.011546,15.41701 8.125112,22.92406 6.604995,16.45187 15.003965,32.16101 24.861455,46.90957 3.50256,5.25567 12.46379,0.82099 8.87736,-4.48915 -8.50263,-12.79551 -15.98682,-26.24122 -22.09202,-40.34145 -3.10923,-7.14652 -5.9712,-14.49016 -8.3637,-22.00587 -2.16165,-6.76959 -4.855888,-14.0043 -4.804224,-21.24428 0.09033,-15.56155 18.720844,-25.52118 30.452104,-32.5687 13.08084,-7.84038 27.09721,-14.00004 41.71797,-18.33633 6.10732,-1.87631 4.10381,-11.6434 -2.08738,-9.82155 z"
   inkscape:connector-curvature="0"
   inkscape:transform-center-x="21.921876"
   inkscape:transform-center-y="51.632049" />
<path
   id="دست_چپ_عادی_1_"
   d="M545.8,277.7c-11.3-8.2-16-22.5-21.2-34.8c-5.9-13.9-13.5-26.8-23.2-38.5  c-4.5-5.4-9.6-12.1-15.7-15.6c-6.8-4-13.9,0-20.1,3.2c-12.7,6.6-24.5,15-35.1,24.7c-11.9,11-22.2,23.7-30.4,37.7  c-3.3,5.5,5.4,10.6,8.6,5c13.5-22.9,32.7-42,55.7-55.4c2.7-1.6,5.5-3.1,8.3-4.5c1.5-0.7,3.1-1.8,4.7-2.2c2.6-0.7,4.1,0.6,6,2.4  c5.4,5.1,10.3,10.7,14.7,16.7c8.3,11.1,14.3,23.3,19.6,36c5.4,13,11.2,25.5,22.9,33.9C546,290.1,551,281.4,545.8,277.7z" />
<g
   id="layer1"
   inkscape:groupmode="layer"
   inkscape:label="Layer 1">
	<ellipse
   class="st3"
   cx="334.1"
   cy="181.5"
   rx="33.9"
   ry="30.3"
   id="ellipse14" />
	<ellipse
   class="st3"
   cx="229.7"
   cy="181.5"
   rx="33.9"
   ry="30.3"
   id="ellipse16" />
	<path
   id="path26819"
   class="st4"
   d="M251.9,264.6h54.8" />
	<g
   id="g27483">
		<ellipse
   id="path26967"
   class="st5"
   cx="240.5"
   cy="187.1"
   rx="14.8"
   ry="14.1" />
		<ellipse
   id="path27237"
   class="st6"
   cx="247.4"
   cy="178.6"
   rx="1.4"
   ry="1.4" />
	</g>
	<g
   id="g27489"
   transform="translate(28.575012)">
		<ellipse
   id="ellipse27485"
   class="st5"
   cx="292.9"
   cy="187.1"
   rx="14.8"
   ry="14.1" />
		<ellipse
   id="ellipse27487"
   class="st6"
   cx="299.8"
   cy="178.6"
   rx="1.4"
   ry="1.4" />
	</g>
</g>
</svg>