<?xml version="1.0" encoding="UTF-8" standalone="no"?>
<!-- Generator: Adobe Illustrator 24.0.1, SVG Export Plug-In . SVG Version: 6.00 Build 0)  -->

<svg
   xmlns:dc="http://purl.org/dc/elements/1.1/"
   xmlns:cc="http://creativecommons.org/ns#"
   xmlns:rdf="http://www.w3.org/1999/02/22-rdf-syntax-ns#"
   xmlns:svg="http://www.w3.org/2000/svg"
   xmlns="http://www.w3.org/2000/svg"
   xmlns:sodipodi="http://sodipodi.sourceforge.net/DTD/sodipodi-0.dtd"
   xmlns:inkscape="http://www.inkscape.org/namespaces/inkscape"
   version="1.1"
   id="svg5"
   x="0px"
   y="0px"
   viewBox="0 0 595.3 841.9"
   style="enable-background:new 0 0 595.3 841.9;"
   xml:space="preserve"
   sodipodi:docname="chagh2Creature_no_eyes.svg"
   inkscape:version="0.92.5 (2060ec1f9f, 2020-04-08)"><metadata
   id="metadata31"><rdf:RDF><cc:Work
       rdf:about=""><dc:format>image/svg+xml</dc:format><dc:type
         rdf:resource="http://purl.org/dc/dcmitype/StillImage" /><dc:title></dc:title></cc:Work></rdf:RDF></metadata><defs
   id="defs29" /><sodipodi:namedview
   pagecolor="#ffffff"
   bordercolor="#666666"
   borderopacity="1"
   objecttolerance="10"
   gridtolerance="10"
   guidetolerance="10"
   inkscape:pageopacity="0"
   inkscape:pageshadow="2"
   inkscape:window-width="1920"
   inkscape:window-height="1015"
   id="namedview27"
   showgrid="false"
   inkscape:snap-to-guides="true"
   inkscape:snap-grids="true"
   inkscape:object-nodes="true"
   inkscape:snap-global="true"
   inkscape:zoom="1.0963061"
   inkscape:cx="-20.725423"
   inkscape:cy="637.33584"
   inkscape:window-x="0"
   inkscape:window-y="0"
   inkscape:window-maximized="1"
   inkscape:current-layer="layer1" />
<style
   type="text/css"
   id="style2">
	.st0{fill:#0000FF;stroke:#0000FF;stroke-width:7;stroke-miterlimit:11.3386;}
	.st1{fill:#0000FF;}
	.st2{fill:none;stroke:#000000;stroke-width:7;stroke-miterlimit:11.3386;}
	.st3{fill:#FFFFFF;stroke:#FFFFFF;stroke-width:3;stroke-miterlimit:11.3386;}
	.st4{fill:none;stroke:#000000;stroke-width:6.4205;stroke-miterlimit:11.3386;}
	.st5{stroke:#000000;stroke-width:2.8346;stroke-miterlimit:11.3386;}
	.st6{fill:#FFFFFF;stroke:#FFFFFF;stroke-width:2.8346;stroke-miterlimit:11.3386;}
</style>
<circle
   class="st0"
   cx="281.9"
   cy="250.3"
   r="148.4"
   id="circle4" />
<polygon
   class="st0"
   points="317.7,393.1 307.7,473.6 374.1,473.6 347.5,460.7 361.6,372.7 "
   id="polygon6" />
<polygon
   class="st1"
   points="252.3,396.9 262.3,477.4 195.9,477.4 222.5,464.4 208.4,376.4 "
   id="polygon8" />
<polyline
   class="st2"
   points="287,214.2 271.3,240.1 292.5,237 "
   id="polyline10" />
<path
   id="دست_چپ_عادی"
   d="m 167.61536,245.29779 c -16.54831,5.08264 -32.36528,12.17654 -47.00618,21.32881 -12.91269,8.12111 -29.780431,18.34165 -32.328776,34.75616 -1.238839,7.87371 0.881314,15.87838 3.186711,23.40801 2.419967,7.72163 5.116195,15.38261 8.280701,22.86832 6.716634,16.4066 15.222164,32.05831 25.179654,46.73955 3.53819,5.23174 12.46908,0.73627 8.84665,-4.54938 -8.58939,-12.73744 -16.16478,-26.13198 -22.36565,-40.19039 -3.15772,-7.12523 -6.06953,-14.44925 -8.51305,-21.94853 -2.2076,-6.75475 -4.950934,-13.97098 -4.94847,-21.21115 -0.01542,-15.5618 18.54698,-25.6478 30.23008,-32.77487 13.02727,-7.9291 27.00145,-14.18386 41.59241,-18.61939 6.09444,-1.91778 4.02459,-11.67102 -2.15408,-9.80714 z"
   inkscape:connector-curvature="0"
   inkscape:transform-center-x="37.298795"
   inkscape:transform-center-y="67.466823" />
<path
   id="دست_چپ_عادی_1_"
   d="m 425.13661,397.09322 c 4.54062,-13.20275 16.84342,-21.87576 27.08741,-30.44261 11.56964,-9.70378 21.68622,-20.7412 30.0416,-33.43638 3.84959,-5.88139 8.76715,-12.71642 10.33216,-19.57286 1.83867,-7.67198 -4.06123,-13.29347 -8.93308,-18.28797 -10.02262,-10.21749 -21.50375,-19.04833 -33.87754,-26.35171 -13.99689,-8.16682 -29.15212,-14.30677 -44.93706,-18.05852 -6.22419,-1.54904 -8.55973,8.26142 -2.26913,9.68561 25.84512,6.22014 49.72144,19.00181 69.25674,37.08307 2.31906,2.11471 4.5717,4.35427 6.72869,6.62305 1.10772,1.23002 2.6272,2.43881 3.47723,3.85213 1.42911,2.28202 0.62409,4.0964 -0.54223,6.43941 -3.29972,6.65446 -7.22371,12.97682 -11.67633,18.93788 -8.19061,11.18096 -18.10521,20.48368 -28.70253,29.26303 -10.855,8.96264 -21.11495,18.16174 -25.72997,31.80547 -2.05645,6.27464 7.7248,8.51455 9.74404,2.4604 z"
   inkscape:connector-curvature="0"
   inkscape:transform-center-x="-41.094143"
   inkscape:transform-center-y="69.833737" />
<g
   id="layer1"
   inkscape:groupmode="layer"
   inkscape:label="Layer 1">
	
	
	<path
   id="path26819"
   class="st4"
   d="M 251.9,264.6 H 279.11913 306.7"
   inkscape:connector-curvature="0"
   style="fill:none;stroke:#000000;stroke-width:6.4204998;stroke-miterlimit:11.33860016"
   sodipodi:nodetypes="ccc" />
	
	
</g>
</svg>