<?xml version="1.0" encoding="UTF-8" standalone="no"?>
<!-- Generator: Adobe Illustrator 24.0.1, SVG Export Plug-In . SVG Version: 6.00 Build 0)  -->

<svg
   xmlns:dc="http://purl.org/dc/elements/1.1/"
   xmlns:cc="http://creativecommons.org/ns#"
   xmlns:rdf="http://www.w3.org/1999/02/22-rdf-syntax-ns#"
   xmlns:svg="http://www.w3.org/2000/svg"
   xmlns="http://www.w3.org/2000/svg"
   xmlns:sodipodi="http://sodipodi.sourceforge.net/DTD/sodipodi-0.dtd"
   xmlns:inkscape="http://www.inkscape.org/namespaces/inkscape"
   version="1.1"
   id="svg5"
   x="0px"
   y="0px"
   viewBox="0 0 595.3 841.9"
   style="enable-background:new 0 0 595.3 841.9;"
   xml:space="preserve"
   sodipodi:docname="chaghCreature_plain.svg"
   inkscape:version="0.92.5 (2060ec1f9f, 2020-04-08)"><metadata
   id="metadata31"><rdf:RDF><cc:Work
       rdf:about=""><dc:format>image/svg+xml</dc:format><dc:type
         rdf:resource="http://purl.org/dc/dcmitype/StillImage" /></cc:Work></rdf:RDF></metadata><defs
   id="defs29" /><sodipodi:namedview
   pagecolor="#ffffff"
   bordercolor="#666666"
   borderopacity="1"
   objecttolerance="10"
   gridtolerance="10"
   guidetolerance="10"
   inkscape:pageopacity="0"
   inkscape:pageshadow="2"
   inkscape:window-width="1920"
   inkscape:window-height="1015"
   id="namedview27"
   showgrid="false"
   inkscape:snap-to-guides="true"
   inkscape:snap-grids="true"
   inkscape:object-nodes="true"
   inkscape:snap-global="true"
   inkscape:zoom="2.1926122"
   inkscape:cx="214.95139"
   inkscape:cy="554.00002"
   inkscape:window-x="0"
   inkscape:window-y="0"
   inkscape:window-maximized="1"
   inkscape:current-layer="svg5" />
<style
   type="text/css"
   id="style2">
	.st0{fill:#0000FF;stroke:#0000FF;stroke-width:7;stroke-miterlimit:11.3386;}
	.st1{fill:#0000FF;}
	.st2{fill:none;stroke:#000000;stroke-width:7;stroke-miterlimit:11.3386;}
	.st3{fill:#FFFFFF;stroke:#FFFFFF;stroke-width:3;stroke-miterlimit:11.3386;}
	.st4{fill:none;stroke:#000000;stroke-width:6.4205;stroke-miterlimit:11.3386;}
	.st5{stroke:#000000;stroke-width:2.8346;stroke-miterlimit:11.3386;}
	.st6{fill:#FFFFFF;stroke:#FFFFFF;stroke-width:2.8346;stroke-miterlimit:11.3386;}
</style>
<circle
   class="st0"
   cx="281.9"
   cy="250.3"
   r="148.4"
   id="circle4" />
<polygon
   class="st0"
   points="317.7,393.1 307.7,473.6 374.1,473.6 347.5,460.7 361.6,372.7 "
   id="polygon6" />
<polygon
   class="st1"
   points="252.3,396.9 262.3,477.4 195.9,477.4 222.5,464.4 208.4,376.4 "
   id="polygon8" />
<polyline
   class="st2"
   points="287,214.2 271.3,240.1 292.5,237 "
   id="polyline10" />
<path
   id="دست_چپ_عادی"
   d="m 175.12982,208.41978 c -17.29328,0.7889 -34.38067,3.70797 -50.84331,8.9139 -14.53167,4.63903 -33.417364,10.32326 -39.984242,25.58125 -3.165927,7.31484 -3.112002,15.59536 -2.760065,23.46214 0.414925,8.08132 1.112507,16.17289 2.307298,24.2117 2.40651,17.56413 6.733752,34.84403 12.709304,51.54681 2.119532,5.94958 11.890115,3.82691 9.702475,-2.1959 -5.13624,-14.47892 -9.126503,-29.34088 -11.620016,-44.50242 -1.278251,-7.68805 -2.268726,-15.50719 -2.761991,-23.37908 -0.45075,-7.09203 -1.305014,-14.76472 0.505496,-21.77486 3.871397,-15.07257 24.364461,-20.2033 37.457251,-24.18686 14.59466,-4.42449 29.68809,-6.99122 44.92443,-7.64234 6.38027,-0.33501 6.81174,-10.29613 0.36337,-10.03434 z"
   inkscape:connector-curvature="0"
   inkscape:transform-center-x="42.87187"
   inkscape:transform-center-y="60.661943" />
<path
   id="دست_چپ_عادی_1_"
   d="M545.8,277.7c-11.3-8.2-16-22.5-21.2-34.8c-5.9-13.9-13.5-26.8-23.2-38.5  c-4.5-5.4-9.6-12.1-15.7-15.6c-6.8-4-13.9,0-20.1,3.2c-12.7,6.6-24.5,15-35.1,24.7c-11.9,11-22.2,23.7-30.4,37.7  c-3.3,5.5,5.4,10.6,8.6,5c13.5-22.9,32.7-42,55.7-55.4c2.7-1.6,5.5-3.1,8.3-4.5c1.5-0.7,3.1-1.8,4.7-2.2c2.6-0.7,4.1,0.6,6,2.4  c5.4,5.1,10.3,10.7,14.7,16.7c8.3,11.1,14.3,23.3,19.6,36c5.4,13,11.2,25.5,22.9,33.9C546,290.1,551,281.4,545.8,277.7z" />
<g
   id="layer1"
   inkscape:groupmode="layer"
   inkscape:label="Layer 1">
	<ellipse
   class="st3"
   cx="334.1"
   cy="181.5"
   rx="33.9"
   ry="30.3"
   id="ellipse14" />
	<ellipse
   class="st3"
   cx="229.7"
   cy="181.5"
   rx="33.9"
   ry="30.3"
   id="ellipse16" />
	<path
   id="path26819"
   class="st4"
   d="M 251.9,264.6 H 279.11913 306.7"
   inkscape:connector-curvature="0"
   style="fill:none;stroke:#000000;stroke-width:6.4204998;stroke-miterlimit:11.33860016"
   sodipodi:nodetypes="ccc" />
	<g
   id="g27483">
		<ellipse
   id="path26967"
   class="st5"
   cx="240.5"
   cy="187.1"
   rx="14.8"
   ry="14.1" />
		<ellipse
   id="path27237"
   class="st6"
   cx="247.4"
   cy="178.6"
   rx="1.4"
   ry="1.4" />
	</g>
	<g
   id="g27489"
   transform="translate(28.575012)">
		<ellipse
   id="ellipse27485"
   class="st5"
   cx="292.9"
   cy="187.1"
   rx="14.8"
   ry="14.1" />
		<ellipse
   id="ellipse27487"
   class="st6"
   cx="299.8"
   cy="178.6"
   rx="1.4"
   ry="1.4" />
	</g>
</g>
</svg>